<svg width="22" height="24" viewBox="0 0 22 24" fill="none" xmlns="http://www.w3.org/2000/svg">
    <path
        d="M6.6484 9.53201L0.24292 14.657V15.725L6.33873 12.735L6.6484 9.53201ZM14.3981 16.152L10.9878 23.732L9.95518 23.946L11.401 17.113L14.3981 16.152Z"
        fill="#231F20" />
    <path
        d="M6.33867 18.18C6.13158 17.22 5.92545 10.066 7.37222 6.33C8.61093 3.02 11.1948 0.349999 14.1909 0.0299988C15.7413 -0.0770012 17.6003 0.136999 19.3567 1.738C21.2167 3.233 21.7335 4.835 21.9406 6.436C22.3538 9.639 20.2867 12.736 17.4977 14.657C14.2945 16.899 6.7519 18.287 6.54577 18.287C6.44222 18.287 6.33867 18.287 6.33867 18.18Z"
        fill="#FFD300" />
    <path
        d="M15.2246 10.92C17.1647 10.92 18.7375 9.2948 18.7375 7.29C18.7375 5.28521 17.1647 3.66 15.2246 3.66C13.2845 3.66 11.7117 5.28521 11.7117 7.29C11.7117 9.2948 13.2845 10.92 15.2246 10.92Z"
        fill="#231F20" />
    <path
        d="M15.2245 9.32599C16.289 9.32599 17.1532 8.43399 17.1532 7.33299C17.1532 6.23199 16.29 5.33899 15.2245 5.33899C14.159 5.33899 13.2958 6.23199 13.2958 7.33299C13.2958 8.43299 14.159 9.32599 15.2245 9.32599Z"
        fill="white" />
</svg>